<svg xmlns="http://www.w3.org/2000/svg" width="98.601" height="112.826" viewBox="0 0 98.601 112.826">
  <g id="Group_1248" data-name="Group 1248" transform="translate(-165.5 -24.442)">
    <path id="Path_14" data-name="Path 14" d="M185.269,310.982h75.648l3.6,3.6V406.1l-3.6,3.6H185.269l-3.6-3.6V314.584Z" transform="translate(-15.667 -272.932)" fill="#0072b4" stroke="#fff" stroke-width="1" fill-rule="evenodd"/>
    <g id="Group_108" data-name="Group 108" transform="translate(169.606 119.754)">
      <path id="Path_15" data-name="Path 15" d="M193.44,518.35v6.566h-2.926v-13.45h2.607l2.045,6.453v-6.453h2.888v13.45H195.5Z" transform="translate(-190.514 -511.428)" fill="#ff0"/>
      <path id="Path_16" data-name="Path 16" d="M218.373,511.374h5.721v2.57h-2.607v2.532h2.157v2.513h-2.157v3.339h2.682v2.532h-5.8Z" transform="translate(-207.014 -511.374)" fill="#ff0"/>
      <path id="Path_17" data-name="Path 17" d="M244.7,514h-1.294v2.739l2.231.188,2.138,1.951v4.089l-2.026,1.951h-3.432l-2.026-1.951V520.6h3.114v1.782H244.7V519.57l-2.251-.188L240.3,517.45v-4.033l2.063-1.951h3.245l2.1,1.951V515.8h-3Z" transform="translate(-219.999 -511.428)" fill="#ff0"/>
      <path id="Path_18" data-name="Path 18" d="M266.04,511.466h6.584V514h-1.744v10.918H267.8V514H266.04Z" transform="translate(-235.246 -511.428)" fill="#ff0"/>
      <path id="Path_19" data-name="Path 19" d="M290.125,511.466h3.114v10.918h2.776v2.532h-5.89Z" transform="translate(-249.511 -511.428)" fill="#ff0"/>
      <rect id="Rectangle_1068" data-name="Rectangle 1068" width="3.114" height="13.45" transform="translate(49.778 0.038)" fill="#ff0"/>
      <path id="Path_20" data-name="Path 20" d="M332.9,518.35v6.566H329.97v-13.45h2.607l2.045,6.453v-6.453h2.889v13.45H334.96Z" transform="translate(-273.111 -511.428)" fill="#ff0"/>
      <path id="Path_21" data-name="Path 21" d="M361.8,514h-1.444v8.385H361.8v-1.932h-.769v-2.57h3.882v5.084l-2.063,1.951h-3.395l-2.176-1.97v-9.529l2.064-1.951h3.47l2.1,1.951v3.076H361.8Z" transform="translate(-289.284 -511.428)" fill="#ff0"/>
    </g>
    <path id="Path_22" data-name="Path 22" d="M331.281,373.117a1.835,1.835,0,1,1-2.079,1.819,1.962,1.962,0,0,1,2.079-1.819" transform="translate(-103.05 -309.733)" fill="#0072b4"/>
    <path id="Path_23" data-name="Path 23" d="M231.112,366.167l35.124.053L255.3,370.133l.157,51.717-18.693-.143c-4.835-26.243-16.332-38.229-33.059-41.6l.158,42.313-13.353-.1v-56.15c29.475,2.029,42.872,13.489,51.481,27.759l.018-23.81Z" transform="translate(-20.907 -305.617)" fill="#fff" fill-rule="evenodd"/>
    <path id="Path_24" data-name="Path 24" d="M326.09,319.315c.016.163,1.3.656,1.851,4.519.236,1.675,2.5,1.619,3.073,3.636.835,2.941-1.011,5.115-4.574,6.977a4.466,4.466,0,0,1-3.485-.119,4.766,4.766,0,0,1-1.46-7.655c3.733-2.37,4.02-4.27,4.594-7.358" transform="translate(-97.69 -277.867)" fill="#ff0" fill-rule="evenodd"/>
    <path id="Path_25" data-name="Path 25" d="M342.992,341.953c-.065,3.073-2.141,5.33-5.348,7.13,2.331.266,4.919.332,6.33-1.553,1.569-2.1.77-4.209-.981-5.576" transform="translate(-108.05 -291.275)" fill="#ff0" fill-rule="evenodd"/>
    <path id="Path_26" data-name="Path 26" d="M310.867,345.372c3.435,5.683,8.669,8.512,17.468,5.7a2.173,2.173,0,0,1-.325,2.629h-16.8a5.947,5.947,0,0,1-.345-8.324" transform="translate(-91.282 -293.301)" fill="#ff0" fill-rule="evenodd"/>
    <path id="Path_27" data-name="Path 27" d="M331.906,374.464a1.322,1.322,0,1,1-1.322,1.321A1.322,1.322,0,0,1,331.906,374.464Z" transform="translate(-103.868 -310.531)" fill="#0072b4" fill-rule="evenodd"/>
    <path id="Path_28" data-name="Path 28" d="M331.906,374.464a1.322,1.322,0,1,1-1.322,1.321A1.322,1.322,0,0,1,331.906,374.464Z" transform="translate(-103.868 -310.531)" fill="none" stroke="#0072b4" stroke-miterlimit="2.613" stroke-width="0.5"/>
    <path id="Path_29" data-name="Path 29" d="M392.5,288.788a7.267,7.267,0,1,1-7.267,7.267A7.267,7.267,0,0,1,392.5,288.788Z" transform="translate(-136.168 -263.846)" fill="none" stroke="#fff" stroke-miterlimit="2.613" stroke-width="1"/>
    <path id="Path_30" data-name="Path 30" d="M394.152,296.882h1.011a5.219,5.219,0,0,0,1.227-.083.735.735,0,0,0,.383-.287.878.878,0,0,0,.138-.508.821.821,0,0,0-.182-.553.831.831,0,0,0-.514-.264q-.168-.024-1-.024h-1.066Zm-1.369,3.9V294.02h2.876a4.914,4.914,0,0,1,1.576.183,1.547,1.547,0,0,1,.787.647,1.953,1.953,0,0,1,.3,1.066,1.808,1.808,0,0,1-.445,1.258,2.141,2.141,0,0,1-1.333.625,3.116,3.116,0,0,1,.727.567,7.651,7.651,0,0,1,.775,1.1l.825,1.319h-1.633l-.979-1.477a9.23,9.23,0,0,0-.723-.992,1.052,1.052,0,0,0-.411-.28,2.3,2.3,0,0,0-.691-.075h-.277v2.824Z" transform="translate(-139.317 -265.193)" fill="#fff"/>
  </g>
</svg>
